<svg style="max-height: 500px" color-interpolation-filters="sRGB" preserveAspectRatio="xMidYMid meet" viewBox="51.38781512605042 0.9690197999999999 195.3747899159664 129.77874" xmlns:xlink="http://www.w3.org/1999/xlink" xmlns="http://www.w3.org/2000/svg" version="1.0" data-v-0dd9719b="" width="195.3747899159664" height="129.77874">   <g transform="translate(61.42499542236328,4.96784973144531)" class="icon-text-wrapper icon-svg-group iconsvg" fill="#333" data-v-0dd9719b=""><g transform="translate(58.57500457763672,0)" class="iconsvg-imagesvg"><g><rect class="image-rect" height="83.3842903996887" width="80" y="0" x="0" stroke-width="2" fill-opacity="0" fill="#333"/> <svg style="overflow: visible;" class="image-svg-svg primary" height="83.3842903996887" width="80" y="0" x="0"><svg viewBox="0 -0.01248161494731903 84.16980743408203 116.97471618652344" xmlns="http://www.w3.org/2000/svg"><title>Proxarr</title><path fill="#2d53be" d="M81.66 29.06C85.43 39.08 85 49 80.05 58.29c-7.42 14-19.34 21.1-35.21 21.36-5.08.08-10.16-.15-15.24-.21-3.17 0-3.25.07-3.27 3.17-.08 10.4-.22 20.81-.19 31.22 0 2.4-.76 3.18-3.15 3.13-6.41-.13-12.83-.11-19.24 0-2.19 0-2.9-.73-2.87-2.9.1-7.65-.1-15.32.07-23 .33-15.73 12.92-30.62 28.39-33.32 4.06-.71 8.31-.28 12.46-.44 5.15-.2 10.36 0 15.43-.78 13.59-2 21.88-12.83 24.09-25.33.12-.7.23-1.42.34-2.13z"/><path fill="#2595db" d="M57.27 52.26c3.91-2.78 6.73-6.27 7.59-11 1.82-10.06-5.5-18.6-15.9-18.81-6.07-.13-12.19 0-18.2-.73-8.88-1.08-17.14-4.13-24-10.15C3.39 8.61.8 5.11 0 .16 1 .1 1.76 0 2.54 0H50a32.46 32.46 0 0 1 14.77 3.1c8.49 4.28 12.73 11 13.12 20.69.53 13.16-8.4 24-17.84 27.5-.91.38-1.85.71-2.78.97z"/></svg></svg> </g></g> <g transform="translate(0,90.3843002319336)"><g class="tp-name iconsvg-namesvg" fill-rule="" data-gra="path-name"><g transform="scale(1)"><g><path transform="translate(-2.309999942779541, 29.68000030517578)" d="M32.04-16.02L32.04-24.73C32.04-27.46 29.81-29.68 27.08-29.68L2.31-29.68 2.31 0 5.66 0 5.66-11.23C6.48-11.12 7.02-11.06 7.27-11.06L27.08-11.06C29.81-11.06 32.04-13.29 32.04-16.02ZM27.08-14.45L7.27-14.45C6.39-14.45 5.66-15.14 5.66-16.02L5.66-24.73C5.66-25.6 6.39-26.34 7.27-26.34L27.08-26.34C27.96-26.34 28.69-25.6 28.69-24.73L28.69-16.02C28.69-15.14 27.96-14.45 27.08-14.45ZM34.8-18.95L34.8 0 38.19 0 38.19-18.95C38.19-19.82 38.92-20.56 39.8-20.56L53.26-20.56 53.26-23.94 39.8-23.94C37.07-23.94 34.8-21.68 34.8-18.95ZM55.69-18.95L55.69-5C55.69-2.27 57.96 0 60.69 0L75.06 0C77.82 0 80.09-2.24 80.09-5L80.09-18.95C80.09-21.7 77.82-23.94 75.06-23.94L60.69-23.94C57.96-23.94 55.69-21.68 55.69-18.95ZM76.67-18.95L76.67-5C76.67-4.12 75.93-3.39 75.06-3.39L60.69-3.39C59.81-3.39 59.08-4.12 59.08-5L59.08-18.95C59.08-19.82 59.81-20.56 60.69-20.56L75.06-20.56C75.93-20.56 76.67-19.82 76.67-18.95ZM102.63-23.94L94.83-14.86 87.07-23.94 82.61-23.94 92.6-12.18 82.61 0 87.07 0 94.83-9.58 102.63 0 107.09 0 97.06-12.18 107.05-23.94ZM132.4-18.95L132.4-13.67 111.43-13.67 111.43-5C111.43-2.27 113.69 0 116.42 0L135.83 0 135.83-18.95C135.83-21.7 133.55-23.94 130.79-23.94L111.43-23.94 111.43-20.56 130.79-20.56C131.66-20.56 132.4-19.82 132.4-18.95ZM114.81-5L114.81-10.28 132.4-10.28 132.4-3.39 116.42-3.39C115.55-3.39 114.81-4.12 114.81-5ZM139.87-18.95L139.87 0 143.26 0 143.26-18.95C143.26-19.82 143.99-20.56 144.87-20.56L158.33-20.56 158.33-23.94 144.87-23.94C142.14-23.94 139.87-21.68 139.87-18.95ZM161.01-18.95L161.01 0 164.39 0 164.39-18.95C164.39-19.82 165.13-20.56 166-20.56L179.46-20.56 179.46-23.94 166-23.94C163.27-23.94 161.01-21.68 161.01-18.95Z"/></g>       </g></g> </g></g><defs/></svg>